HIERARCHY
ROOT Hips
{
  OFFSET 0.0599075 85.7788 4.56537
  CHANNELS 6 Xposition Yposition Zposition Zrotation Xrotation Yrotation
  JOINT Spine
  {
    OFFSET 0 10 0
    CHANNELS 6 Xposition Yposition Zposition Zrotation Xrotation Yrotation
    JOINT Neck
    {
      OFFSET 0 30 0
      CHANNELS 6 Xposition Yposition Zposition Zrotation Xrotation Yrotation
      JOINT Head
      {
        OFFSET 0 8 0
        CHANNELS 6 Xposition Yposition Zposition Zrotation Xrotation Yrotation
        End Site
        {
          OFFSET 0 10 0
        }
      }
    }
    JOINT LeftArm
    {
      OFFSET 15 30 0
      CHANNELS 6 Xposition Yposition Zposition Zrotation Xrotation Yrotation
      JOINT LeftForeArm
      {
        OFFSET 25 0 0
        CHANNELS 6 Xposition Yposition Zposition Zrotation Xrotation Yrotation
        JOINT LeftHand
        {
          OFFSET 25 0 0
          CHANNELS 6 Xposition Yposition Zposition Zrotation Xrotation Yrotation
          End Site
          {
            OFFSET 10 0 0
          }
        }
      }
    }
    JOINT RightArm
    {
      OFFSET -15 30 0
      CHANNELS 6 Xposition Yposition Zposition Zrotation Xrotation Yrotation
      JOINT RightForeArm
      {
        OFFSET -25 0 0
        CHANNELS 6 Xposition Yposition Zposition Zrotation Xrotation Yrotation
        JOINT RightHand
        {
          OFFSET -25 0 0
          CHANNELS 6 Xposition Yposition Zposition Zrotation Xrotation Yrotation
          End Site
          {
            OFFSET -10 0 0
          }
        }
      }
    }
  }
  JOINT LeftUpLeg
  {
    OFFSET 10 -10 0
    CHANNELS 6 Xposition Yposition Zposition Zrotation Xrotation Yrotation
    JOINT LeftLeg
    {
      OFFSET 0 -35 0
      CHANNELS 6 Xposition Yposition Zposition Zrotation Xrotation Yrotation
      JOINT LeftFoot
      {
        OFFSET 0 -40 0
        CHANNELS 6 Xposition Yposition Zposition Zrotation Xrotation Yrotation
        End Site
        {
          OFFSET 0 0 15
        }
      }
    }
  }
  JOINT RightUpLeg
  {
    OFFSET -10 -10 0
    CHANNELS 6 Xposition Yposition Zposition Zrotation Xrotation Yrotation
    JOINT RightLeg
    {
      OFFSET 0 -35 0
      CHANNELS 6 Xposition Yposition Zposition Zrotation Xrotation Yrotation
      JOINT RightFoot
      {
        OFFSET 0 -40 0
        CHANNELS 6 Xposition Yposition Zposition Zrotation Xrotation Yrotation
        End Site
        {
          OFFSET 0 0 15
        }
      }
    }
  }
}
MOTION
Frames:	15
Frame Time:	0.0333333
-42.7479 85.3204 82.6017 -2.39096 -5.45007 -93.114 0 10 0 -4.26111 9.69016 -1.04601 0 30 -7.10543e-15 -12.0103 -19.4897 -7.91861 1.42109e-14 8 -7.10543e-15 17.6501 31.2752 -14.0543 15 30 -7.10543e-15 -77.4904 23.954 -7.77145 25 -1.42109e-14 1.06581e-14 17.5407 -5.75444 -29.1491 25 2.84217e-14 1.42109e-14 -0.985249 0.0916052 -2.27782 -15 30 0 91.936 9.95797 -1.16281 -25 0 -7.10543e-15 -15.1922 -3.61365 25.0256 -25 1.42109e-14 0 0.385693 5.99754 -0.170433 10 -10 -1.42109e-14 -7.18867 3.03626 1.09308 1.42109e-14 -35 -7.10543e-15 -1.67848 23.4424 -0.643645 1.42109e-14 -40 0 3.88786 -24.3333 -5.75515 -10 -10 -7.10543e-15 -10.0243 -30.3365 -1.33881 0 -35 0 1.12384 32.4386 -1.18873 1.42109e-14 -40 0 2.78172 0.100177 -5.93831 
-45.3 85.0161 82.0376 -1.99671 -5.13001 -92.8004 0 10 0 -3.93511 9.36112 -1.24342 1.42109e-14 30 3.55271e-15 -11.8875 -19.6218 -7.97511 -1.42109e-14 8 -1.42109e-14 17.3563 31.1865 -13.9808 15 30 3.55271e-15 -77.0723 23.9151 -8.27054 25 0 0 17.479 -5.70721 -29.0016 25 0 1.42109e-14 -0.933757 -0.0402248 -2.25575 -15 30 3.55271e-15 92.1646 9.6657 -1.52627 -25 0 0 -15.0923 -3.56434 24.8463 -25 7.10543e-15 0 0.372402 6.00337 -0.174048 10 -10 -7.10543e-15 -6.66933 5.39556 -0.0864215 1.42109e-14 -35 -7.10543e-15 -1.67992 21.9389 -0.762297 0 -40 0 3.84133 -25.4062 -4.72737 -10 -10 -7.10543e-15 -9.75344 -30.7351 -0.0357341 0 -35 0 0.979747 26.7665 -0.642885 0 -40 -1.42109e-14 3.63863 5.7122 -3.43327 
-47.5253 84.7539 81.6282 -1.66165 -5.50384 -92.8313 1.42109e-14 10 0 -4.0624 9.38576 -1.25379 0 30 0 -11.8467 -20.2375 -7.98341 0 8 -1.42109e-14 16.7734 31.3215 -13.8838 15 30 3.55271e-15 -77.1597 23.564 -8.75451 25 -1.42109e-14 0 17.4039 -5.62326 -28.8081 25 -2.84217e-14 1.42109e-14 -1.07571 0.493806 -2.2276 -15 30 -3.55271e-15 92.0547 9.4735 -1.47219 -25 0 0 -14.8848 -3.45483 24.4542 -25 7.10543e-15 1.42109e-14 0.370777 6.73811 -0.196147 10 -10 7.10543e-15 -7.15718 7.66468 -0.809449 1.42109e-14 -35 0 -1.73964 20.2699 -0.816462 0 -40 -3.55271e-15 4.25727 -25.5876 -3.55371 -10 -10 0 -10.3108 -32.1638 -1.23517 0 -35 0 0.99537 28.281 -0.656419 0 -40 -1.42109e-14 3.17091 5.34801 -2.06418 
-49.7875 84.6516 80.9672 -1.93201 -5.70471 -92.9726 1.42109e-14 10 7.10543e-15 -4.55483 9.86814 -1.08233 -2.84217e-14 30 7.10543e-15 -12.1874 -20.7231 -8.21313 0 8 0 18.2061 31.6736 -14.2554 15 30 1.06581e-14 -77.265 23.4258 -8.48866 25 1.42109e-14 -7.10543e-15 17.3216 -5.57007 -28.6429 25 0 0 -1.01488 0.157403 -2.17411 -15 30 7.10543e-15 92.3741 9.08235 -1.32212 -25 0 -7.10543e-15 -14.522 -3.26702 23.7631 -25 7.10543e-15 0 0.37653 7.41 -0.214452 10 -10 7.10543e-15 -7.21932 9.83978 -1.47254 0 -35 3.55271e-15 -1.72527 20.0139 -0.831144 -1.42109e-14 -40 -7.10543e-15 4.36324 -25.3459 -2.45735 -10 -10 0 -10.0174 -32.9547 -2.41061 -1.42109e-14 -35 0 1.12933 33.1593 -0.914764 0 -40 0 1.8956 1.55927 -0.50056 
-52.2586 84.9654 80.2438 -1.94566 -5.33206 -92.2592 -1.42109e-14 10 1.42109e-14 -4.19936 9.83043 -1.47803 0 30 7.10543e-15 -11.3825 -20.6067 -7.96047 0 8 0 16.1471 31.179 -13.4073 15 30 7.10543e-15 -78.2428 22.837 -7.57054 25 0 7.10543e-15 17.0697 -5.36352 -28.1287 25 0 0 -1.13566 0.799624 -2.10644 -15 30 7.10543e-15 92.5902 8.594 -1.39822 -25 0 -7.10543e-15 -14.0128 -3.00402 22.7722 -25 -7.10543e-15 1.42109e-14 0.406363 7.46024 -0.236916 10 -10 7.10543e-15 -6.39633 11.5817 -3.11842 -1.42109e-14 -35 -7.10543e-15 -1.73898 20.0368 -0.77798 -1.42109e-14 -40 3.55271e-15 4.38392 -24.0466 -1.85091 -10 -10 1.42109e-14 -8.76579 -31.8673 -1.43784 0 -35 0 1.13106 35.0435 -1.33131 1.42109e-14 -40 0 1.65451 -1.36088 -0.348456 
-54.8184 85.322 79.5577 -1.64392 -4.17859 -92.0182 1.42109e-14 10 7.10543e-15 -2.68266 9.35443 -1.35422 1.42109e-14 30 0 -11.5862 -20.967 -7.8002 -1.42109e-14 8 0 15.8087 31.9082 -13.3574 15 30 0 -80.0736 22.1363 -6.55197 25 0 7.10543e-15 16.5047 -4.90886 -26.9505 25 -2.84217e-14 -7.10543e-15 -1.34182 1.4242 -2.25291 -15 30 7.10543e-15 92.5115 6.74828 -1.50434 -25 1.42109e-14 -7.10543e-15 -13.5706 -2.79536 21.9592 -25 0 -2.84217e-14 0.391216 8.90487 -0.251191 10 -10 0 -4.75692 12.7414 -4.30164 0 -35 -3.55271e-15 -1.74665 20.7716 -0.665854 -1.42109e-14 -40 3.55271e-15 4.41563 -22.8569 -2.07835 -10 -10 -7.10543e-15 -6.99581 -30.5839 -1.37319 -1.42109e-14 -35 1.42109e-14 1.13663 35.4107 -1.44525 0 -40 0 1.15551 -3.06309 -0.693455 
-57.4115 85.7111 78.8068 -1.5822 -3.36331 -92.3568 1.42109e-14 10 1.42109e-14 -1.59976 9.23172 -0.744303 0 30 0 -11.5727 -21.4865 -7.28089 -1.42109e-14 8 -1.42109e-14 15.1135 32.1047 -12.5074 15 30 0 -82.1395 20.6137 -5.31219 25 0 7.10543e-15 15.8969 -4.46555 -25.6991 25 0 7.10543e-15 -1.32344 2.54817 -2.21439 -15 30 0 92.2551 6.12079 -1.82535 -25 0 0 -13.5038 -2.75785 21.8139 -25 7.10543e-15 0 0.394529 8.93864 -0.225388 10 -10 -7.10543e-15 -3.87967 10.8996 -5.11796 -1.42109e-14 -35 0 -1.59415 27.2089 -0.305887 0 -40 7.10543e-15 4.42076 -21.365 -1.93899 -10 -10 7.10543e-15 -6.10867 -28.8305 -2.86173 -1.42109e-14 -35 -1.42109e-14 1.15514 35.7331 -1.42982 0 -40 -7.10543e-15 0.369234 -5.01191 1.1534 
-59.996 86.1015 78.0572 -1.5119 -2.75901 -92.6523 0 10 0 -0.651769 9.1346 -0.00703576 0 30 0 -11.3512 -22.3118 -6.37228 0 8 0 13.7867 32.5084 -11.0085 15 30 0 -84.229 19.4115 -4.04525 25 0 -1.42109e-14 15.2765 -4.04943 -24.4464 25 2.84217e-14 0 -1.1589 3.71695 -2.22767 -15 30 0 91.7122 5.69245 -1.67137 -25 -1.42109e-14 0 -13.0343 -2.54189 20.9344 -25 7.10543e-15 -1.42109e-14 0.410494 9.29031 -0.254073 10 -10 7.10543e-15 -3.44464 8.62993 -5.87766 -1.42109e-14 -35 7.10543e-15 -1.39073 33.6119 0.0815737 1.42109e-14 -40 -1.77636e-15 5.14491 -18.8895 -3.4129 -10 -10 0 -5.31939 -26.665 -4.00121 0 -35 0 1.12576 35.3283 -1.32962 -1.42109e-14 -40 2.13163e-14 -0.232156 -6.94967 2.79648 
-62.6087 86.6015 77.2351 -1.51365 -1.7031 -93.054 0 10 0 0.6716 9.0959 0.879067 -1.42109e-14 30 0 -10.6608 -23.1213 -5.06337 -1.42109e-14 8 -1.42109e-14 12.0893 32.884 -9.02931 15 30 0 -85.4906 20.8366 -2.61818 25 2.84217e-14 0 14.5395 -3.61647 -23.0554 25 0 -7.10543e-15 -1.12692 3.09355 -2.26313 -15 30 0 91.1814 5.8113 -1.66616 -25 -1.42109e-14 7.10543e-15 -12.929 -2.4989 20.7528 -25 7.10543e-15 1.42109e-14 0.40124 9.80519 -0.260649 10 -10 -1.42109e-14 -2.09323 5.31742 -5.06094 1.42109e-14 -35 0 -1.2247 41.3602 0.482625 0 -40 -3.55271e-15 6.19496 -14.9317 -6.01927 -10 -10 -1.42109e-14 -3.36896 -23.8073 -3.92451 0 -35 0 1.01075 33.8633 -1.14876 0 -40 7.10543e-15 -0.860236 -8.28745 3.31056 
-65.1311 87.0427 76.4783 -1.90738 0.207388 -93.7662 0 10 -7.10543e-15 3.01725 9.77075 2.06534 0 30 0 -10.0151 -23.7472 -3.32829 -1.42109e-14 8 -1.42109e-14 9.82224 32.5117 -6.29843 15 30 0 -86.8368 22.4308 -1.46752 25 0 -7.10543e-15 13.9173 -3.27735 -21.8854 25 0 0 -1.07914 3.63144 -2.23937 -15 30 -7.10543e-15 90.0311 6.73333 -1.21214 -25 0 0 -12.9387 -2.51483 20.8023 -25 -7.10543e-15 0 0.36641 10.3634 -0.264054 10 -10 0 0.271197 1.90979 -3.99311 0 -35 -7.10543e-15 -1.10942 49.4314 0.657806 0 -40 8.88178e-16 7.98808 -9.51787 -8.46204 -10 -10 -1.42109e-14 -0.24295 -19.96 -3.4636 0 -35 1.42109e-14 0.794402 31.2173 -0.812972 1.42109e-14 -40 0 -1.6147 -8.96617 3.33805 
-67.4369 87.4106 75.9146 -2.06766 1.48581 -94.2809 0 10 0 4.67937 10.4888 3.05974 -1.42109e-14 30 7.10543e-15 -9.55276 -24.6853 -1.82601 0 8 -1.42109e-14 8.42564 32.7936 -4.06038 15 30 -7.10543e-15 -88.6816 21.7464 -0.635382 25 0 1.42109e-14 13.6124 -3.09846 -21.269 25 0 0 -1.03205 6.50665 -2.17085 -15 30 7.10543e-15 88.7831 7.795 -0.331545 -25 7.10543e-15 -7.10543e-15 -13.0455 -2.56322 20.9993 -25 -7.10543e-15 0 0.359742 10.1111 -0.261926 10 -10 -1.42109e-14 1.90855 -1.99532 -3.06012 -1.42109e-14 -35 -7.10543e-15 -1.06508 56.1854 0.294158 0 -40 2.66454e-15 10.0135 -3.17164 -10.5894 -10 -10 -1.42109e-14 1.72228 -16.7478 -3.41178 0 -35 -2.84217e-14 0.641892 28.9205 -0.562734 -1.42109e-14 -40 1.42109e-14 -2.08226 -9.5 4.10991 
-69.6006 87.5972 75.466 -2.19367 1.8847 -94.3612 0 10 1.42109e-14 5.35856 11.0499 3.79435 1.42109e-14 30 -1.42109e-14 -9.32657 -25.1145 -0.807887 7.10543e-15 8 1.42109e-14 7.44402 32.7122 -2.51861 15 30 7.10543e-15 -90.2498 21.4291 -0.33782 25 1.42109e-14 -1.42109e-14 13.2311 -2.8746 -20.4568 25 0 -1.42109e-14 -1.04148 8.24415 -2.13675 -15 30 -7.10543e-15 87.2147 10.1375 0.803515 -25 -7.10543e-15 -1.42109e-14 -13.1633 -2.61127 21.1907 -25 0 1.42109e-14 0.378205 9.01958 -0.247888 10 -10 0 2.60914 -6.70559 -2.38684 1.42109e-14 -35 -1.42109e-14 -1.15974 61.8965 1.09168 0 -40 1.77636e-15 4.81974 -0.999879 -9.52842 -10 -10 0 2.64145 -14.2252 -3.15954 0 -35 -1.42109e-14 0.583668 27.6555 -0.485196 0 -40 -7.10543e-15 -2.36609 -10.7038 3.59407 
-71.7997 87.7492 74.999 -2.33149 2.14721 -94.3448 -1.42109e-14 10 0 5.51033 11.3284 4.81737 -1.42109e-14 30 0 -8.78031 -24.9737 0.0365004 1.42109e-14 8 -1.42109e-14 6.6276 32.3799 -1.6911 15 30 -7.10543e-15 -91.257 21.342 -0.11763 25 -1.42109e-14 7.10543e-15 12.8726 -2.67445 -19.7143 25 0 1.42109e-14 -1.10034 8.53759 -2.1314 -15 30 0 86.1865 10.6324 2.07394 -25 -7.10543e-15 0 -13.1138 -2.58254 21.0772 -25 -7.10543e-15 0 0.390018 9.34352 -0.225878 10 -10 0 2.95036 -10.3779 -1.70551 1.42109e-14 -35 0 -1.37295 65.273 1.36987 -1.42109e-14 -40 -1.77636e-15 4.12203 -4.76214 -6.70117 -10 -10 0 3.39019 -12.0208 -3.29503 0 -35 1.42109e-14 0.541051 26.8678 -0.455812 0 -40 2.13163e-14 -2.77579 -11.7879 3.25201 
-73.8975 87.7803 74.5741 -2.54693 1.81947 -94.0359 -1.42109e-14 10 0 5.02251 11.6754 5.40657 0 30 0 -8.5843 -25.0611 0.493224 -7.10543e-15 8 0 6.19891 32.7003 -1.17021 15 30 1.42109e-14 -92.2154 19.9668 -0.068015 25 0 -7.10543e-15 12.7646 -2.60215 -19.4321 25 -1.42109e-14 7.10543e-15 -0.992512 9.69391 -2.13505 -15 30 -7.10543e-15 85.3427 10.8993 3.50653 -25 0 1.42109e-14 -13.2134 -2.61629 21.2268 -25 0 0 0.414353 10.1564 -0.2288 10 -10 0 2.55615 -13.7958 -1.35471 0 -35 -1.42109e-14 -1.5748 66.1898 1.55095 -1.42109e-14 -40 7.10543e-15 3.88624 -8.15144 -5.50273 -10 -10 0 3.60625 -10.485 -2.16053 1.42109e-14 -35 0 0.531598 27.6286 -0.603125 0 -40 0 -2.95242 -13.4769 1.82128 
-75.9287 87.5531 74.1934 -2.64446 1.39337 -93.2064 -1.42109e-14 10 0 4.40442 11.9988 5.81072 1.42109e-14 30 7.10543e-15 -8.84958 -25.3485 0.550446 -7.10543e-15 8 -1.42109e-14 6.4731 32.8708 -1.11665 15 30 0 -92.4448 20.1208 -0.0236207 25 0 7.10543e-15 12.9048 -2.68082 -19.6951 25 0 0 -0.885138 10.7164 -2.14644 -15 30 0 84.2989 11.4108 4.98824 -25 0 1.42109e-14 -13.329 -2.67085 21.4526 -25 0 0 0.407052 9.02899 -0.251738 10 -10 0 1.96227 -17.0761 -1.24013 0 -35 0 -1.71701 64.902 1.60385 -1.42109e-14 -40 -7.10543e-15 3.81722 -11.629 -4.74567 -10 -10 0 3.41133 -9.64378 -2.23739 -1.42109e-14 -35 0 0.529638 29.2213 -0.797912 0 -40 0 -3.0749 -15.6935 0.698706 
